<svg width="32" height="22" viewBox="0 0 32 22" fill="none" xmlns="http://www.w3.org/2000/svg">
<path d="M17.0776 2.20533C16.956 2.20533 16.8559 2.05037 16.8559 1.86202V0.340933C16.8559 0.152585 16.7033 0 16.515 0H15.4445C15.2561 0 15.1012 0.15497 15.1012 0.340933V1.86202C15.1012 2.05037 15.001 2.20533 14.8794 2.20533C14.7579 2.20533 14.6553 2.3603 14.6553 2.54627V3.15184C14.6553 3.34019 14.7555 3.49277 14.8794 3.49277H17.08C17.2016 3.49277 17.3017 3.34019 17.3017 3.15184V2.54627C17.3017 2.3603 17.2016 2.20533 17.0776 2.20533Z" fill="#78A3AD"/>
<path d="M29.9687 11.1483C28.8529 10.0325 27.1077 9.6844 27.1077 9.6844C27.1077 9.6844 26.1946 7.31218 25.4245 6.27984C23.3312 3.46655 20.7111 2.83714 16.4649 2.83714C13.53 2.83714 10.6166 2.94919 8.23006 5.9556C7.31694 7.10714 5.81969 9.6844 5.81969 9.6844C5.81969 9.6844 3.43316 10.2185 2.22678 11.5631C1.30174 12.5931 0.607949 16.0691 1.82863 17.2874C2.95633 18.4151 4.18655 18.9706 5.00432 18.9706H27.6942C28.9268 18.9706 29.9639 18.3508 30.6124 17.3113C31.7234 15.5279 31.0821 12.264 29.9687 11.1483Z" fill="#FCC21B"/>
<path d="M0 12.5502H10.0563V16.0978H0V12.5502Z" fill="#F79329"/>
<path d="M21.8936 12.5502H32V16.0978H21.8936V12.5502Z" fill="#F79329"/>
<path d="M10.6929 18.4247C10.6929 19.9124 9.48653 21.1212 7.99882 21.1212C6.50873 21.1212 5.30235 19.9148 5.30235 18.4247C5.30235 16.937 6.50873 15.733 7.99882 15.733C9.48653 15.733 10.6929 16.937 10.6929 18.4247Z" fill="#2F2F2F"/>
<path d="M26.9718 18.4247C26.9718 19.9124 25.7631 21.1212 24.2778 21.1212C22.7877 21.1212 21.5813 19.9148 21.5813 18.4247C21.5813 16.937 22.7877 15.733 24.2778 15.733C25.7631 15.733 26.9718 16.937 26.9718 18.4247Z" fill="#2F2F2F"/>
<path d="M15.2895 12.8816H14.653C14.6267 12.8816 14.6053 12.8959 14.5958 12.9197L13.5682 15.6519C13.561 15.671 13.5634 15.6925 13.5753 15.7068C13.5873 15.7235 13.6039 15.7354 13.6254 15.7354H14.3001C14.3263 15.7354 14.3502 15.7187 14.3573 15.6925L14.5147 15.2228H15.4326L15.5876 15.6925C15.5971 15.7187 15.6186 15.7354 15.6472 15.7354H16.3195C16.3386 15.7354 16.3576 15.7235 16.3696 15.7068C16.3815 15.6925 16.3839 15.671 16.3791 15.6519L15.3515 12.9197C15.3372 12.8959 15.3158 12.8816 15.2895 12.8816ZM14.703 14.6458L14.9701 13.8424L15.2371 14.6458H14.703Z" fill="#2F2F2F"/>
<path d="M20.568 12.8816H19.8933C19.8599 12.8816 19.8337 12.9102 19.8337 12.9435V15.6758C19.8337 15.7092 19.8623 15.7378 19.8933 15.7378H20.568C20.6014 15.7378 20.63 15.7092 20.63 15.6758V12.9435C20.63 12.9102 20.6014 12.8816 20.568 12.8816Z" fill="#2F2F2F"/>
<path d="M18.5725 14.3192L19.4737 12.9769C19.488 12.9578 19.488 12.934 19.4785 12.9125C19.4731 12.9028 19.4651 12.8948 19.4554 12.8893C19.4458 12.8838 19.4348 12.8812 19.4236 12.8815H18.6631C18.644 12.8815 18.625 12.8935 18.613 12.9078L18.1076 13.6421L17.5998 12.9078C17.5945 12.8994 17.5871 12.8925 17.5783 12.8879C17.5695 12.8833 17.5596 12.8811 17.5497 12.8815H16.7915C16.7701 12.8815 16.7486 12.8935 16.7391 12.9125C16.7296 12.934 16.7296 12.9578 16.7415 12.9769L17.6451 14.3192L16.7367 15.6424C16.7224 15.6591 16.7224 15.6853 16.7319 15.7044C16.7415 15.7258 16.7606 15.7378 16.7868 15.7378H17.5855C17.6045 15.7378 17.626 15.7258 17.6355 15.7091L18.1076 15.0082L18.5773 15.7091C18.5892 15.7258 18.6083 15.7378 18.6273 15.7378H19.426C19.4372 15.7378 19.4481 15.7349 19.4577 15.7292C19.4672 15.7234 19.475 15.7152 19.4802 15.7053C19.4853 15.6955 19.4877 15.6844 19.487 15.6733C19.4863 15.6622 19.4825 15.6515 19.4761 15.6424L18.5725 14.3192Z" fill="#2F2F2F"/>
<path d="M13.8948 13.4084V12.9149C13.8948 12.8816 13.8662 12.8529 13.8328 12.8529H11.2174C11.1864 12.8529 11.1578 12.8816 11.1578 12.9149V13.4084C11.1578 13.4418 11.1864 13.4704 11.2174 13.4704H12.1639V15.6758C12.1639 15.7092 12.1925 15.7378 12.2235 15.7378H12.8219C12.8553 15.7378 12.8839 15.7092 12.8839 15.6758V13.4704H13.8304C13.8662 13.4681 13.8948 13.4418 13.8948 13.4084Z" fill="#2F2F2F"/>
<path d="M14.9558 9.27911C14.9558 9.95859 14.5195 10.1875 13.983 10.1875H10.1803C8.86426 10.1875 9.57235 8.19909 10.8574 6.79006C12.1425 5.38103 14.1213 5.26898 14.3931 5.33812C14.9176 5.46686 14.9558 5.95323 14.9558 6.48489V9.27911Z" fill="white"/>
<path d="M16.5984 9.27909C16.5984 9.95857 17.2326 10.1875 18.0027 10.1875H23.0142C24.9167 10.1875 23.8129 7.41707 21.8793 6.11295C20.5061 5.1879 17.8048 5.26896 17.4114 5.33572C16.6509 5.46446 16.5984 5.95082 16.5984 6.48249V9.27909Z" fill="white"/>
</svg>
